<?xml version="1.0" standalone="no"?>
<!DOCTYPE svg PUBLIC "-//W3C//DTD SVG 20010904//EN"
 "http://www.w3.org/TR/2001/REC-SVG-20010904/DTD/svg10.dtd">
<svg version="1.0" xmlns="http://www.w3.org/2000/svg"
 width="720.000000pt" height="432.000000pt" viewBox="0 0 720.000000 432.000000"
 preserveAspectRatio="xMidYMid meet">

<g transform="translate(0.000000,432.000000) scale(0.100000,-0.100000)"
fill="#000000" stroke="none">
<path d="M900 3636 c0 -122 -3 -166 -12 -169 -10 -4 -10 -6 0 -6 18 -1 18
-547 0 -554 -10 -4 -10 -6 0 -6 18 -1 18 -537 0 -544 -10 -4 -10 -6 0 -6 18
-1 18 -547 0 -554 -10 -4 -10 -6 0 -6 18 -1 18 -547 0 -554 -10 -4 -10 -6 0
-6 18 -1 18 -537 0 -544 -10 -4 -10 -6 0 -6 8 -1 12 -23 12 -76 l0 -75 124 0
c110 0 125 -2 129 -17 4 -17 5 -17 6 0 1 16 32 17 505 17 472 0 505 -1 509
-17 4 -17 5 -17 6 0 1 16 32 17 500 17 467 0 500 -1 504 -18 4 -16 5 -16 6 1
1 16 32 17 505 17 472 0 505 -1 509 -18 4 -16 5 -16 6 1 1 16 32 17 500 17
467 0 500 -1 504 -18 4 -16 5 -16 6 1 1 16 32 17 505 17 472 0 505 -1 509 -18
4 -16 5 -16 6 1 1 15 14 17 126 17 l125 0 0 1635 0 1635 -2795 0 -2795 0 0
-164z m5580 -1471 l0 -1625 -2785 0 -2785 0 0 1625 0 1625 2785 0 2785 0 0
-1625z"/>
<path d="M2061 3639 c-12 -13 -26 -19 -38 -15 -14 4 -22 -4 -35 -33 -10 -20
-18 -43 -18 -49 0 -7 -4 -12 -10 -12 -5 0 -10 -9 -10 -20 0 -11 -4 -20 -10
-20 -5 0 -10 5 -10 11 0 22 -45 3 -58 -24 -12 -25 -19 -28 -45 -24 -24 3 -36
-2 -54 -22 -33 -36 -83 -140 -72 -147 5 -3 19 16 31 43 11 26 25 50 30 51 4 2
15 10 23 19 11 10 15 11 15 2 0 -10 3 -10 12 -1 7 7 22 12 35 12 13 0 23 5 23
10 0 6 9 19 21 31 17 17 23 18 36 7 13 -10 17 -10 21 0 2 7 10 19 18 26 8 8
14 21 14 29 0 8 7 28 15 44 11 22 21 30 33 26 10 -2 24 3 31 11 18 21 28 20
35 -2 9 -29 47 -64 62 -58 7 3 16 -4 19 -15 9 -28 46 -64 54 -53 3 5 15 10 26
12 11 1 32 4 47 6 21 4 27 0 32 -20 8 -30 22 -31 32 -2 3 12 13 28 20 36 12
11 14 11 14 -5 0 -11 6 -28 14 -39 14 -18 15 -18 25 6 6 15 10 19 10 9 1 -14
7 -15 41 -6 22 6 40 16 40 23 0 20 31 38 71 41 28 2 39 -1 39 -11 0 -8 9 -18
20 -21 11 -3 20 -10 20 -15 0 -5 13 -11 29 -15 17 -4 31 -14 34 -27 3 -11 10
-17 16 -13 7 4 11 -3 11 -17 0 -39 10 -63 33 -77 18 -12 23 -11 39 9 18 22 19
22 32 5 9 -13 15 -15 20 -6 4 6 16 9 26 6 14 -4 23 2 34 22 8 15 15 22 16 16
0 -17 18 -16 36 2 9 8 19 15 23 15 9 0 31 -68 31 -94 0 -16 11 -20 39 -16 24
3 61 55 61 87 0 15 2 15 16 -3 11 -13 17 -15 20 -6 3 6 10 12 15 12 17 0 49
34 49 53 0 17 -2 17 -30 -3 -20 -14 -37 -19 -51 -15 -15 5 -22 2 -26 -14 -3
-12 -9 -21 -14 -21 -5 0 -9 -6 -9 -12 0 -20 -13 -35 -37 -42 -20 -6 -23 -4
-23 19 0 14 -7 41 -14 60 -17 41 -50 48 -60 13 -7 -21 -8 -22 -15 -4 -7 18 -8
18 -26 0 -10 -10 -29 -24 -43 -31 -21 -11 -27 -11 -38 4 -13 17 -15 17 -33 -6
l-19 -24 -11 22 c-7 12 -16 19 -22 16 -5 -4 -9 8 -9 25 0 17 -6 33 -14 36 -8
3 -18 19 -21 36 -5 20 -10 27 -17 20 -14 -14 -38 -4 -38 15 0 10 -6 13 -16 9
-11 -4 -22 1 -32 15 -10 14 -21 19 -35 15 -12 -3 -26 -1 -33 5 -11 9 -37 -19
-56 -61 -5 -11 -7 -9 -7 8 -1 32 -21 27 -22 -5 -1 -16 -3 -21 -6 -12 -5 22
-53 22 -53 1 0 -16 -14 -8 -16 9 -1 5 -2 14 -3 19 -2 18 -21 11 -46 -16 -23
-25 -25 -25 -25 -6 0 16 -6 19 -27 17 -16 -1 -36 -6 -45 -10 -14 -5 -18 -2
-18 11 -1 17 -3 16 -20 -5 -14 -16 -20 -19 -20 -8 0 8 -7 18 -16 21 -10 4 -14
14 -11 26 7 26 -20 49 -29 26 -6 -15 -8 -15 -25 3 -10 10 -21 31 -25 45 -8 31
-17 33 -43 5z"/>
<path d="M3277 3583 c-4 -3 -7 -18 -7 -31 0 -14 3 -22 7 -19 6 6 14 -6 50 -75
15 -28 37 -29 48 0 5 13 9 11 24 -12 11 -16 21 -24 25 -17 4 6 15 7 29 2 12
-5 27 -9 32 -9 6 -1 13 -11 16 -24 3 -13 11 -22 17 -21 7 2 12 -4 12 -12 0 -9
7 -18 15 -21 10 -4 13 -13 10 -24 -3 -11 1 -20 10 -24 9 -3 14 -10 10 -15 -3
-5 -1 -12 4 -15 5 -3 12 -18 16 -33 9 -39 35 -66 50 -53 9 8 14 -2 19 -40 4
-27 11 -50 15 -50 5 0 12 -18 16 -40 8 -48 16 -54 50 -38 26 12 36 7 47 -24 2
-4 14 -9 28 -11 19 -3 26 -12 32 -43 5 -21 17 -46 28 -56 11 -9 20 -21 20 -27
0 -6 7 -8 15 -5 10 4 15 0 15 -14 0 -23 22 -42 28 -24 2 6 10 8 18 5 8 -3 14
1 14 10 0 21 32 46 37 30 8 -24 21 -13 27 21 5 24 14 37 29 42 35 12 47 13 47
3 0 -23 20 -6 30 26 8 24 18 35 31 35 29 0 59 -18 59 -35 0 -18 16 -20 26 -3
6 9 10 5 14 -11 7 -33 26 -37 34 -9 l7 23 11 -23 c6 -13 17 -21 25 -18 7 3 13
-1 13 -9 0 -18 16 -20 23 -2 3 6 6 2 6 -10 1 -23 15 -31 25 -14 8 13 52 1 74
-19 11 -10 28 -18 38 -17 13 2 20 -6 22 -23 6 -42 22 -54 43 -31 11 11 19 25
19 31 0 5 5 10 10 10 6 0 10 6 10 14 0 9 7 12 20 9 11 -3 20 -10 20 -15 0 -6
7 -5 15 2 8 7 15 23 15 35 0 13 6 25 13 28 20 6 47 -4 47 -19 0 -8 11 -20 25
-26 16 -7 25 -19 25 -35 0 -12 5 -23 11 -23 8 0 10 13 5 38 -3 20 -6 45 -6 56
0 14 -6 17 -25 14 -15 -3 -25 -1 -25 6 0 6 -9 19 -21 29 -19 17 -21 17 -39 -5
-11 -13 -20 -32 -20 -43 0 -12 -3 -16 -8 -9 -11 17 -53 10 -65 -12 -5 -10 -17
-27 -25 -37 -18 -20 -32 -7 -32 30 0 28 -17 38 -35 23 -13 -10 -15 -8 -15 12
0 19 -5 24 -22 23 -13 -1 -33 2 -45 6 -17 6 -25 4 -32 -9 -9 -15 -10 -14 -11
7 0 15 -5 21 -14 18 -7 -3 -19 0 -25 6 -8 8 -11 8 -11 -2 0 -7 -4 -9 -10 -6
-5 3 -10 17 -10 31 0 30 -7 30 -31 2 l-18 -23 -1 23 c0 18 -4 22 -19 17 -13
-4 -23 2 -34 19 -15 22 -19 23 -51 14 -23 -7 -37 -19 -40 -34 -4 -13 -10 -23
-14 -22 -4 1 -26 -1 -48 -5 -36 -6 -42 -11 -48 -38 -5 -24 -10 -29 -25 -24
-12 3 -21 0 -25 -11 -3 -9 -13 -14 -21 -10 -8 3 -19 -3 -24 -12 -9 -15 -10
-14 -11 6 0 16 -8 26 -29 33 -28 10 -51 44 -51 78 0 21 -23 44 -33 34 -4 -3
-7 -1 -7 5 0 7 -5 12 -12 12 -6 0 -19 7 -29 16 -13 12 -22 13 -38 5 -28 -15
-28 -16 -35 30 -4 23 -13 48 -21 56 -8 8 -15 32 -15 53 0 39 -13 59 -25 40 -9
-15 -45 28 -52 62 -3 15 -12 33 -19 39 -8 6 -14 25 -14 41 0 16 -4 27 -9 23
-5 -3 -11 7 -13 22 -2 16 -8 27 -15 26 -7 -2 -13 6 -13 16 0 11 -4 23 -10 26
-5 3 -10 -1 -10 -9 0 -19 -42 -16 -48 3 -3 9 -7 9 -17 1 -10 -9 -16 -6 -25 10
-6 11 -8 25 -5 30 3 5 1 11 -4 14 -5 4 -12 -2 -16 -13 -3 -11 -12 -24 -19 -31
-11 -9 -19 0 -40 45 -28 58 -29 59 -39 48z"/>
<path d="M3258 3485 c-3 -14 -1 -25 3 -25 5 0 9 11 9 25 0 14 -2 25 -4 25 -2
0 -6 -11 -8 -25z"/>
<path d="M6165 3478 c-4 -9 -14 -14 -25 -11 -13 4 -19 -1 -22 -19 -2 -12 -13
-27 -25 -33 -13 -5 -23 -15 -23 -21 0 -7 -6 -14 -14 -17 -8 -3 -20 -24 -27
-46 -7 -22 -16 -38 -20 -35 -5 3 -16 -13 -25 -35 -17 -44 -37 -46 -32 -3 4 37
-21 40 -28 3 -4 -16 -12 -32 -20 -35 -8 -3 -14 -12 -14 -21 0 -8 -4 -15 -10
-15 -5 0 -10 -9 -10 -20 0 -11 -4 -20 -10 -20 -5 0 -10 11 -10 24 0 14 -5 28
-10 31 -6 4 -8 10 -5 15 3 5 1 11 -5 15 -5 3 -10 -2 -10 -12 0 -15 -2 -16 -10
-3 -9 13 -12 12 -26 -5 -8 -11 -18 -32 -21 -47 -3 -15 -8 -26 -12 -23 -11 6
-25 -8 -39 -38 -7 -15 -17 -25 -22 -22 -6 3 -13 -2 -17 -12 -6 -15 -8 -13 -13
11 -9 53 -69 61 -79 11 -2 -10 -9 -24 -16 -32 -11 -10 -14 -10 -19 3 -3 9 -6
27 -6 40 0 13 -4 24 -10 24 -5 0 -10 -8 -10 -19 0 -10 -9 -21 -19 -24 -13 -3
-24 -19 -31 -46 -6 -22 -16 -41 -23 -41 -7 0 -21 -10 -31 -21 -12 -15 -20 -18
-25 -10 -4 6 -22 16 -40 21 -31 9 -33 7 -48 -28 -9 -20 -18 -31 -20 -24 -8 23
-29 12 -43 -22 -11 -30 -15 -32 -27 -20 -8 8 -20 14 -28 14 -7 0 -15 9 -18 20
-6 25 -27 26 -28 3 0 -10 -5 -5 -11 12 -6 17 -17 37 -24 46 -8 8 -14 21 -14
27 0 7 -4 12 -9 12 -5 0 -11 -19 -14 -42 -2 -24 -7 -55 -11 -70 -3 -16 -8 -38
-10 -50 -7 -36 -17 -58 -28 -58 -6 0 -19 -9 -29 -21 -11 -13 -23 -18 -31 -13
-13 8 -58 15 -58 9 0 -2 5 -16 10 -30 8 -21 13 -25 24 -16 11 9 15 7 19 -9 6
-25 25 -26 34 -2 4 9 19 28 35 42 21 19 29 37 34 75 10 77 28 129 41 113 6 -7
13 -26 17 -42 5 -22 11 -27 26 -23 13 3 20 0 20 -9 0 -8 8 -14 18 -14 9 0 23
-9 30 -20 16 -27 32 -25 32 3 0 12 4 28 9 36 8 12 12 12 25 2 13 -11 18 -8 32
22 9 20 24 37 33 40 17 4 41 -15 41 -33 0 -5 5 -10 10 -10 6 0 10 5 10 10 0 6
4 10 10 10 17 0 58 49 70 85 9 29 15 34 25 25 8 -7 19 -9 25 -5 5 3 10 -2 10
-14 0 -22 19 -40 21 -19 1 7 1 16 0 21 0 4 6 7 14 7 8 0 15 8 15 18 0 10 5 23
12 30 17 17 48 -4 48 -33 0 -16 6 -25 15 -25 8 0 15 7 15 15 0 8 6 15 12 15
19 0 76 69 83 101 8 35 25 48 25 20 0 -12 5 -21 10 -21 6 0 10 5 10 10 0 6 5
10 12 10 6 0 9 -3 5 -6 -8 -8 13 -64 24 -64 5 0 9 9 9 20 0 11 7 23 15 26 8 4
15 14 15 24 0 10 7 20 15 24 8 3 15 13 15 23 0 14 3 12 13 -6 17 -34 35 -37
43 -6 3 14 15 30 25 36 12 6 21 26 25 51 5 28 13 42 25 45 11 3 19 9 19 14 0
5 6 9 13 9 7 0 17 10 22 23 6 12 20 23 33 25 15 2 22 11 23 25 1 21 1 20 8 -2
10 -38 27 -35 39 7 14 47 15 52 3 52 -5 0 -12 -15 -16 -32 -8 -31 -8 -32 -12
-8 -6 33 -21 48 -28 28z"/>
<path d="M1677 3255 c-8 -8 -17 -12 -20 -9 -3 3 -8 -8 -12 -24 -3 -16 -21 -46
-38 -66 -26 -28 -37 -55 -51 -123 -11 -49 -22 -90 -25 -93 -12 -10 -31 -50
-31 -65 0 -8 -7 -15 -15 -15 -9 0 -15 -9 -15 -25 0 -34 -19 -72 -39 -78 -17
-4 -82 -191 -88 -251 -2 -16 -8 -46 -13 -65 -5 -20 -10 -45 -10 -56 1 -36 17
5 25 61 7 53 26 118 38 130 4 4 7 19 7 34 0 14 4 30 9 36 5 5 11 20 13 34 2
14 13 29 24 34 21 9 44 62 44 100 0 9 5 16 10 16 6 0 17 18 26 40 9 22 20 40
25 40 5 0 9 10 9 23 0 28 33 144 52 178 7 14 19 24 26 21 6 -2 12 3 12 12 0 8
9 24 21 35 13 12 18 24 13 32 -5 9 -2 10 9 6 14 -5 17 0 17 23 0 34 -3 36 -23
15z"/>
<path d="M4850 2860 c0 -11 4 -19 8 -16 5 3 16 -4 26 -16 14 -15 20 -18 26 -8
10 17 0 50 -15 50 -8 0 -20 3 -29 6 -12 4 -16 0 -16 -16z"/>
<path d="M1293 2272 c-11 -45 -17 -84 -13 -87 10 -6 44 138 38 157 -3 7 -14
-25 -25 -70z"/>
<path d="M1266 2128 c-20 -134 -31 -249 -26 -264 4 -11 10 10 14 51 5 39 9 77
11 85 8 43 16 160 11 160 -3 0 -7 -15 -10 -32z"/>
<path d="M1233 1785 c0 -27 2 -38 4 -22 2 15 2 37 0 50 -2 12 -4 0 -4 -28z"/>
<path d="M1220 1687 c0 -23 -4 -56 -9 -72 -4 -17 -5 -39 0 -50 5 -14 8 -15 9
-5 13 134 14 170 8 170 -5 0 -8 -19 -8 -43z"/>
<path d="M1200 1460 c0 -35 2 -61 4 -59 8 7 10 108 3 115 -4 4 -7 -21 -7 -56z"/>
<path d="M1193 1305 c0 -38 2 -53 4 -32 2 20 2 52 0 70 -2 17 -4 1 -4 -38z"/>
<path d="M1180 1150 c0 -40 2 -71 4 -69 8 7 10 129 3 136 -4 3 -7 -27 -7 -67z"/>
<path d="M1173 985 c0 -38 2 -53 4 -32 2 20 2 52 0 70 -2 17 -4 1 -4 -38z"/>
<path d="M1163 810 c0 -41 2 -58 4 -37 2 20 2 54 0 75 -2 20 -4 3 -4 -38z"/>
<path d="M1152 705 c0 -16 2 -22 5 -12 2 9 2 23 0 30 -3 6 -5 -1 -5 -18z"/>
<path d="M673 3503 c21 -6 22 -26 2 -43 -22 -18 -18 -30 8 -30 17 0 19 2 8 9
-12 8 -12 12 -2 25 17 20 7 46 -16 45 -17 -1 -17 -2 0 -6z"/>
<path d="M710 3491 c0 -10 9 -21 20 -24 26 -7 26 -24 0 -30 -17 -4 -17 -4 2
-3 30 1 37 35 9 43 -26 7 -27 20 -3 26 13 4 11 5 -5 6 -16 1 -23 -5 -23 -18z"/>
<path d="M785 3501 c-3 -7 0 -8 9 -5 13 5 16 -1 16 -26 0 -26 -3 -31 -17 -25
-15 5 -16 4 -5 -6 17 -18 34 2 30 37 -3 29 -21 43 -33 25z"/>
<path d="M673 2943 c21 -6 22 -26 2 -43 -22 -18 -18 -30 8 -30 17 0 19 2 8 9
-12 8 -12 12 -2 25 17 20 7 46 -16 45 -17 -1 -17 -2 0 -6z"/>
<path d="M714 2936 c-11 -28 0 -61 21 -61 16 0 20 7 20 35 0 25 -5 36 -18 38
-9 2 -20 -3 -23 -12z m36 -26 c0 -20 -5 -30 -15 -30 -10 0 -15 10 -15 30 0 20
5 30 15 30 10 0 15 -10 15 -30z"/>
<path d="M775 2931 c-9 -30 4 -63 23 -59 12 2 17 14 17 38 0 40 -29 55 -40 21z
m35 -21 c0 -31 -16 -41 -26 -15 -8 19 2 45 16 45 5 0 10 -13 10 -30z"/>
<path d="M517 2623 c-4 -3 -7 -13 -6 -22 0 -12 3 -11 9 4 8 19 9 19 9 -2 1
-25 2 -26 25 -17 9 3 16 16 15 28 0 20 -1 19 -11 -4 -11 -25 -11 -25 -15 -2
-4 22 -14 28 -26 15z"/>
<path d="M496 2562 c6 -4 13 -15 17 -25 10 -26 51 -18 55 11 3 20 -1 22 -40
22 -24 0 -38 -4 -32 -8z m62 -20 c2 -7 -6 -12 -17 -12 -21 0 -27 11 -14 24 9
9 26 2 31 -12z"/>
<path d="M514 2495 c-4 -9 -2 -21 4 -27 16 -16 47 -5 47 17 0 26 -42 34 -51
10z m46 -10 c0 -8 -9 -15 -20 -15 -20 0 -26 11 -13 23 12 13 33 7 33 -8z"/>
<path d="M536 2433 c-6 -15 -8 -15 -16 -3 -8 13 -10 12 -10 -2 0 -10 6 -18 14
-18 8 0 17 8 21 18 7 16 8 15 16 -3 8 -19 9 -19 6 -1 -3 26 -23 31 -31 9z"/>
<path d="M658 2393 c6 -2 12 -17 12 -33 0 -16 -6 -31 -12 -33 -7 -3 -4 -6 7
-6 18 -1 20 4 17 39 -3 29 -8 40 -21 39 -10 0 -11 -2 -3 -6z"/>
<path d="M700 2381 c0 -10 9 -21 20 -24 26 -7 26 -24 0 -30 -17 -4 -17 -4 2
-3 30 1 37 35 9 43 -26 7 -27 20 -3 26 13 4 11 5 -5 6 -16 1 -23 -5 -23 -18z"/>
<path d="M775 2391 c-3 -7 0 -8 9 -5 13 5 16 -1 16 -26 0 -26 -3 -31 -17 -25
-15 5 -16 4 -5 -6 17 -18 34 2 30 37 -3 29 -21 43 -33 25z"/>
<path d="M523 2383 c9 -2 25 -2 35 0 9 3 1 5 -18 5 -19 0 -27 -2 -17 -5z"/>
<path d="M523 2363 c-7 -2 -13 -13 -13 -24 0 -16 7 -19 43 -18 23 0 36 3 30 6
-7 2 -13 11 -13 18 0 10 -25 28 -33 24 -1 0 -8 -3 -14 -6z m35 -21 c2 -7 -6
-12 -17 -12 -21 0 -27 11 -14 24 9 9 26 2 31 -12z"/>
<path d="M514 2289 c-3 -6 1 -18 9 -27 13 -13 19 -13 31 -2 9 7 16 20 15 29 0
10 -4 7 -11 -9 -11 -25 -11 -25 -15 -2 -5 24 -18 29 -29 11z"/>
<path d="M510 2205 c0 -8 4 -15 10 -15 5 0 7 7 4 15 -4 8 -8 15 -10 15 -2 0
-4 -7 -4 -15z"/>
<path d="M513 2154 c-7 -20 10 -37 33 -32 11 2 20 12 20 26 1 19 1 19 -3 2 -6
-26 -23 -26 -23 0 0 24 -18 27 -27 4z m14 -16 c-3 -8 -6 -5 -6 6 -1 11 2 17 5
13 3 -3 4 -12 1 -19z"/>
<path d="M517 2103 c-4 -3 -7 -15 -7 -25 0 -15 8 -18 43 -18 23 0 37 4 31 8
-6 4 -13 15 -17 25 -6 17 -37 23 -50 10z m43 -18 c0 -8 -9 -15 -20 -15 -11 0
-20 7 -20 15 0 8 9 15 20 15 11 0 20 -7 20 -15z"/>
<path d="M510 1990 c0 -16 6 -20 33 -19 30 2 30 2 5 6 -16 2 -28 8 -28 13 0 5
12 11 28 13 25 4 25 4 -5 6 -27 1 -33 -3 -33 -19z"/>
<path d="M510 1948 c0 -14 8 -18 33 -17 27 2 28 2 7 6 -14 3 -28 10 -32 17 -5
7 -8 5 -8 -6z"/>
<path d="M533 1903 c33 -5 36 -30 5 -36 -20 -3 -20 -4 2 -3 18 1 26 7 28 24 3
19 -1 22 -30 21 -30 -2 -31 -2 -5 -6z"/>
<path d="M507 1836 c-6 -15 -2 -17 25 -14 17 2 33 9 34 16 1 7 0 8 -3 2 -7
-14 -40 -13 -45 2 -3 7 -7 5 -11 -6z"/>
<path d="M658 1833 c6 -2 12 -17 12 -33 0 -16 -6 -31 -12 -33 -7 -3 -4 -6 7
-6 18 -1 20 4 17 39 -3 29 -8 40 -21 39 -10 0 -11 -2 -3 -6z"/>
<path d="M704 1826 c-11 -28 0 -61 21 -61 16 0 20 7 20 35 0 25 -5 36 -18 38
-9 2 -20 -3 -23 -12z m36 -26 c0 -20 -5 -30 -15 -30 -10 0 -15 10 -15 30 0 20
5 30 15 30 10 0 15 -10 15 -30z"/>
<path d="M765 1821 c-9 -30 4 -63 23 -59 12 2 17 14 17 38 0 40 -29 55 -40 21z
m35 -21 c0 -16 -5 -30 -10 -30 -14 0 -24 26 -16 45 10 26 26 16 26 -15z"/>
<path d="M513 1794 c-3 -8 -1 -20 5 -26 14 -14 47 -6 48 12 0 9 -1 10 -3 3 -7
-20 -23 -15 -23 7 0 24 -18 27 -27 4z m14 -16 c-3 -8 -6 -5 -6 6 -1 11 2 17 5
13 3 -3 4 -12 1 -19z"/>
<path d="M500 1742 c-5 -2 -10 -12 -10 -23 0 -16 7 -19 43 -18 23 1 34 3 25 6
-22 6 -23 19 -2 31 13 7 9 9 -14 8 -18 0 -36 -2 -42 -4z m30 -23 c0 -5 -7 -9
-15 -9 -15 0 -20 12 -9 23 8 8 24 -1 24 -14z"/>
<path d="M720 1260 c0 -11 7 -20 15 -20 21 0 19 -28 -2 -33 -17 -4 -17 -5 0
-6 25 -1 34 29 14 44 -22 16 -21 22 1 28 13 4 11 5 -5 6 -17 1 -23 -5 -23 -19z"/>
<path d="M774 1266 c-11 -28 0 -61 21 -61 16 0 20 7 20 35 0 25 -5 36 -18 38
-9 2 -20 -3 -23 -12z m36 -26 c0 -20 -5 -30 -15 -30 -10 0 -15 10 -15 30 0 20
5 30 15 30 10 0 15 -10 15 -30z"/>
<path d="M787 723 c-11 -10 -8 -61 4 -69 6 -3 16 -1 22 5 9 9 8 11 -5 6 -15
-6 -18 -1 -18 25 0 25 3 31 16 26 8 -3 12 -2 9 4 -7 12 -19 13 -28 3z"/>
<path d="M1147 463 c-11 -10 -8 -61 4 -69 6 -3 16 -1 22 5 9 9 8 11 -5 6 -15
-6 -18 -1 -18 25 0 25 3 31 16 26 8 -3 12 -2 9 4 -7 12 -19 13 -28 3z"/>
<path d="M2073 463 c21 -6 22 -26 2 -43 -22 -18 -18 -30 8 -30 17 0 19 2 8 9
-12 8 -12 12 -2 25 17 20 7 46 -16 45 -17 -1 -17 -2 0 -6z"/>
<path d="M2114 456 c-11 -28 0 -61 21 -61 16 0 20 7 20 35 0 25 -5 36 -18 38
-9 2 -20 -3 -23 -12z m36 -26 c0 -20 -5 -30 -15 -30 -10 0 -15 10 -15 30 0 20
5 30 15 30 10 0 15 -10 15 -30z"/>
<path d="M2175 451 c-9 -30 4 -63 23 -59 12 2 17 14 17 38 0 40 -29 55 -40 21z
m35 -21 c0 -16 -5 -30 -10 -30 -14 0 -24 26 -16 45 10 26 26 16 26 -15z"/>
<path d="M2247 464 c-4 -4 -7 -12 -7 -18 0 -6 5 -4 10 4 9 13 11 13 21 0 9
-12 10 -12 7 -1 -5 17 -21 25 -31 15z"/>
<path d="M3077 440 c-18 -29 -18 -30 2 -30 12 0 21 -6 21 -12 0 -10 3 -9 9 1
6 9 11 10 15 2 21 -33 54 8 41 50 -9 27 -37 20 -46 -11 l-7 -25 -1 28 c-1 35
-12 34 -34 -3z m78 -10 c0 -13 -6 -25 -12 -27 -9 -3 -13 6 -13 27 0 21 4 30
13 28 6 -3 12 -15 12 -28z m-59 -7 c-10 -10 -19 5 -10 18 6 11 8 11 12 0 2 -7
1 -15 -2 -18z"/>
<path d="M3185 451 c-9 -30 4 -63 23 -59 12 2 17 14 17 38 0 40 -29 55 -40 21z
m35 -21 c0 -16 -5 -30 -10 -30 -14 0 -24 26 -16 45 10 26 26 16 26 -15z"/>
<path d="M3255 461 c-3 -7 0 -8 9 -5 13 5 16 -1 16 -26 0 -26 -3 -31 -17 -25
-15 5 -16 4 -5 -6 17 -18 34 2 30 37 -3 29 -21 43 -33 25z"/>
<path d="M4094 456 c-3 -8 -4 -25 -2 -38 3 -20 9 -23 48 -23 45 0 45 0 45 35
0 26 -5 36 -18 38 -12 2 -20 -3 -24 -16 -3 -14 -11 -18 -24 -15 -24 7 -25 20
-1 26 16 4 16 5 -1 6 -10 0 -20 -5 -23 -13z m86 -26 c0 -20 -5 -30 -15 -30
-10 0 -15 10 -15 30 0 20 5 30 15 30 10 0 15 -10 15 -30z m-58 -15 c0 -5 -5
-11 -11 -13 -6 -2 -11 4 -11 13 0 9 5 15 11 13 6 -2 11 -8 11 -13z"/>
<path d="M4205 451 c-9 -30 4 -63 23 -59 12 2 17 14 17 38 0 40 -29 55 -40 21z
m35 -21 c0 -31 -16 -41 -26 -15 -8 19 2 45 16 45 5 0 10 -13 10 -30z"/>
<path d="M4277 464 c-4 -4 -7 -12 -7 -18 0 -6 5 -4 10 4 9 13 11 13 21 0 9
-12 10 -12 7 -1 -5 17 -21 25 -31 15z"/>
<path d="M5107 463 c-2 -5 -4 -23 -5 -40 -2 -27 1 -33 18 -33 11 0 20 5 20 10
0 6 8 5 20 -2 17 -11 22 -10 30 2 12 19 12 41 1 59 -12 18 -41 7 -41 -17 0
-18 -18 -42 -32 -42 -4 0 -8 7 -8 16 0 10 6 14 15 10 11 -4 15 1 15 19 0 23
-23 36 -33 18z m23 -13 c0 -5 -4 -10 -10 -10 -5 0 -10 5 -10 10 0 6 5 10 10
10 6 0 10 -4 10 -10z m55 -20 c0 -13 -6 -25 -12 -27 -9 -3 -13 6 -13 27 0 21
4 30 13 28 6 -3 12 -15 12 -28z"/>
<path d="M5215 451 c-9 -30 4 -63 23 -59 12 2 17 14 17 38 0 40 -29 55 -40 21z
m35 -21 c0 -31 -16 -41 -26 -15 -8 19 2 45 16 45 5 0 10 -13 10 -30z"/>
<path d="M5285 461 c-3 -7 0 -8 9 -5 13 5 16 -1 16 -26 0 -26 -3 -31 -17 -25
-15 5 -16 4 -5 -6 17 -18 34 2 30 37 -3 29 -21 43 -33 25z"/>
<path d="M6088 463 c6 -2 12 -17 12 -33 0 -16 -6 -31 -12 -33 -7 -3 -4 -6 7
-6 18 -1 20 4 17 39 -3 29 -8 40 -21 39 -10 0 -11 -2 -3 -6z"/>
<path d="M6134 456 c-11 -28 0 -61 21 -61 16 0 20 7 20 35 0 25 -5 36 -18 38
-9 2 -20 -3 -23 -12z m36 -26 c0 -20 -5 -30 -15 -30 -10 0 -15 10 -15 30 0 20
5 30 15 30 10 0 15 -10 15 -30z"/>
<path d="M6195 451 c-9 -30 4 -63 23 -59 12 2 17 14 17 38 0 40 -29 55 -40 21z
m35 -21 c0 -31 -16 -41 -26 -15 -8 19 2 45 16 45 5 0 10 -13 10 -30z"/>
<path d="M6267 464 c-4 -4 -7 -12 -7 -18 0 -6 5 -4 10 4 9 13 11 13 21 0 9
-12 10 -12 7 -1 -5 17 -21 25 -31 15z"/>
<path d="M6324 456 c-10 -25 0 -61 18 -64 19 -4 32 29 23 58 -7 23 -33 27 -41
6z m31 -26 c0 -13 -6 -25 -12 -27 -9 -3 -13 6 -13 27 0 21 4 30 13 28 6 -3 12
-15 12 -28z"/>
<path d="M2243 410 c2 -8 10 -15 17 -15 7 0 15 7 17 15 4 13 3 13 -6 0 -10
-13 -12 -13 -22 0 -9 13 -10 13 -6 0z"/>
<path d="M4273 410 c2 -8 10 -15 17 -15 7 0 15 7 17 15 4 13 3 13 -6 0 -10
-13 -12 -13 -22 0 -9 13 -10 13 -6 0z"/>
<path d="M6263 410 c2 -8 10 -15 17 -15 7 0 15 7 17 15 4 13 3 13 -6 0 -10
-13 -12 -13 -22 0 -9 13 -10 13 -6 0z"/>
<path d="M3480 290 c0 -37 2 -40 28 -39 23 2 24 2 5 6 -27 5 -31 30 -5 36 16
4 16 5 0 6 -10 0 -18 5 -18 10 0 5 8 12 18 14 13 4 11 5 -5 6 -20 1 -23 -4
-23 -39z"/>
<path d="M3780 321 c0 -5 -9 -11 -21 -14 -29 -8 -22 -51 9 -55 20 -3 22 1 22
37 0 23 -2 41 -5 41 -3 0 -5 -4 -5 -9z m0 -41 c0 -11 -7 -20 -15 -20 -8 0 -15
9 -15 20 0 11 7 20 15 20 8 0 15 -9 15 -20z"/>
<path d="M3540 268 c0 -24 4 -38 8 -32 4 6 15 13 25 17 26 10 18 51 -10 55
-21 3 -23 -1 -23 -40z m40 12 c0 -11 -7 -20 -15 -20 -8 0 -15 9 -15 20 0 11 7
20 15 20 8 0 15 -9 15 -20z"/>
<path d="M3602 280 c0 -19 2 -27 5 -17 2 9 2 25 0 35 -3 9 -5 1 -5 -18z"/>
<path d="M3634 299 c-4 -7 1 -16 12 -22 17 -10 17 -11 -1 -18 -16 -6 -17 -8
-3 -8 25 -1 33 20 12 32 -17 10 -17 11 1 18 16 6 17 8 3 8 -9 1 -20 -4 -24
-10z"/>
<path d="M3684 296 c-9 -24 4 -48 23 -44 12 2 18 12 18 28 0 29 -32 41 -41 16z
m36 -16 c0 -11 -7 -20 -15 -20 -8 0 -15 9 -15 20 0 11 7 20 15 20 8 0 15 -9
15 -20z"/>
<path d="M3814 295 c-9 -23 3 -45 23 -44 17 1 17 2 1 6 -24 6 -23 23 2 23 13
0 18 5 14 15 -4 8 -13 15 -20 15 -8 0 -17 -7 -20 -15z"/>
<path d="M3870 296 c0 -8 8 -17 18 -21 16 -7 15 -8 -3 -15 -16 -7 -17 -9 -3
-9 25 -1 34 20 13 31 -14 8 -15 12 -4 19 11 7 10 9 -3 9 -10 0 -18 -6 -18 -14z"/>
</g>
</svg>
